%
M48
M72
T01C0.01181
T02C0.04000
T03C0.05200
T04C0.15748
%
T01
X81252Y56245
X98087Y58544
X97503Y82073
X104321Y82700
X129927Y54945
X129906Y51639
T02
X149288Y52687
X159288Y52687
X159288Y62687
X149288Y62687
X149288Y72687
X159288Y72687
X159288Y82687
X149288Y82687
T03
X124838Y105990
X84838Y115990
X84838Y95990
X21961Y77383
X21961Y57583
X68142Y39500
X68142Y19500
X108142Y29500
T04
X20705Y22502
X20705Y113053
M30
